<?xml version="1.0" encoding="UTF-8" standalone="no"?>
<!-- Created with Inkscape (http://www.inkscape.org/) -->

<svg
   xmlns:dc="http://purl.org/dc/elements/1.1/"
   xmlns:cc="http://creativecommons.org/ns#"
   xmlns:rdf="http://www.w3.org/1999/02/22-rdf-syntax-ns#"
   xmlns:svg="http://www.w3.org/2000/svg"
   xmlns="http://www.w3.org/2000/svg"
   xmlns:sodipodi="http://sodipodi.sourceforge.net/DTD/sodipodi-0.dtd"
   xmlns:inkscape="http://www.inkscape.org/namespaces/inkscape"
   width="16"
   height="16"
   id="svg2"
   version="1.1"
   inkscape:version="0.48.3.1 r9886"
   sodipodi:docname="New document 1">
  <defs
     id="defs4" />
  <sodipodi:namedview
     id="base"
     pagecolor="#ffffff"
     bordercolor="#666666"
     borderopacity="1.0"
     inkscape:pageopacity="0.0"
     inkscape:pageshadow="2"
     inkscape:zoom="1"
     inkscape:cx="257.79981"
     inkscape:cy="120.6174"
     inkscape:document-units="px"
     inkscape:current-layer="layer1"
     showgrid="false"
     fit-margin-top="0"
     fit-margin-left="0"
     fit-margin-right="0"
     fit-margin-bottom="0"
     inkscape:window-width="1885"
     inkscape:window-height="1022"
     inkscape:window-x="33"
     inkscape:window-y="-3"
     inkscape:window-maximized="1">
    <inkscape:grid
       type="xygrid"
       id="grid2985"
       empspacing="5"
       visible="true"
       enabled="true"
       snapvisiblegridlinesonly="true"
       originx="-15.325237px"
       originy="-579.9978px" />
  </sodipodi:namedview>
  <metadata
     id="metadata7">
    <rdf:RDF>
      <cc:Work
         rdf:about="">
        <dc:format>image/svg+xml</dc:format>
        <dc:type
           rdf:resource="http://purl.org/dc/dcmitype/StillImage" />
        <dc:title></dc:title>
      </cc:Work>
    </rdf:RDF>
  </metadata>
  <g
     inkscape:label="Layer 1"
     inkscape:groupmode="layer"
     id="layer1"
     transform="translate(-15.325237,-456.36438)">
    <g
       id="g3830"
       transform="translate(0.25002205,-1.2857466)">
      <rect
         y="464.62387"
         x="21.964504"
         height="1.6351844"
         width="2.1655145"
         id="rect3828"
         style="color:#000000;fill:#000000;fill-opacity:1;fill-rule:nonzero;stroke:none;stroke-width:1;marker:none;visibility:visible;display:inline;overflow:visible;enable-background:accumulate" />
      <path
         id="path3826"
         style="fill:#000000;stroke:#000000;stroke-width:0.55406272;stroke-linecap:butt;stroke-linejoin:round;stroke-miterlimit:4;stroke-opacity:1;stroke-dasharray:none"
         d="m 21.77452,470.36218 0.590396,-7.56366 -3.803911,-1.03009 -2.830334,6.00231 z"
         inkscape:connector-curvature="0"
         sodipodi:nodetypes="ccccc" />
      <path
         transform="matrix(0.20721537,0,0,0.20721537,0.21779248,354.47002)"
         sodipodi:type="arc"
         style="color:#000000;fill:#000000;fill-opacity:1;fill-rule:nonzero;stroke:#000000;stroke-width:2;stroke-linecap:round;stroke-linejoin:round;stroke-miterlimit:4;stroke-opacity:1;stroke-dasharray:none;stroke-dashoffset:0;marker:none;visibility:visible;display:inline;overflow:visible;enable-background:accumulate"
         id="path3794"
         sodipodi:cx="110"
         sodipodi:cy="530.36218"
         sodipodi:rx="3"
         sodipodi:ry="3"
         d="m 113,530.36218 c 0,1.65686 -1.34315,3 -3,3 -1.65685,0 -3,-1.34314 -3,-3 0,-1.65685 1.34315,-3 3,-3 1.65685,0 3,1.34315 3,3 z" />
      <path
         transform="matrix(0.10360769,0,0,0.10360769,16.518642,405.38771)"
         sodipodi:type="arc"
         style="color:#000000;fill:#000000;fill-opacity:1;fill-rule:nonzero;stroke:#000000;stroke-width:3.99999976;stroke-linecap:round;stroke-linejoin:miter;stroke-miterlimit:4;stroke-opacity:1;stroke-dasharray:none;stroke-dashoffset:0;marker:none;visibility:visible;display:inline;overflow:visible;enable-background:accumulate"
         id="path3771"
         sodipodi:cx="85"
         sodipodi:cy="532.36218"
         sodipodi:rx="10"
         sodipodi:ry="10"
         d="m 95,532.36218 c 0,5.52285 -4.477153,10 -10,10 -5.522847,0 -10,-4.47715 -10,-10 0,-5.52284 4.477153,-10 10,-10 5.522847,0 10,4.47716 10,10 z" />
      <path
         d="m 95,532.36218 c 0,5.52285 -4.477153,10 -10,10 -5.522847,0 -10,-4.47715 -10,-10 0,-5.52284 4.477153,-10 10,-10 5.522847,0 10,4.47716 10,10 z"
         sodipodi:ry="10"
         sodipodi:rx="10"
         sodipodi:cy="532.36218"
         sodipodi:cx="85"
         id="path3767"
         style="color:#000000;fill:#000000;fill-opacity:1;fill-rule:nonzero;stroke:#000000;stroke-width:3.99999976;stroke-linecap:round;stroke-linejoin:miter;stroke-miterlimit:4;stroke-opacity:1;stroke-dasharray:none;stroke-dashoffset:0;marker:none;visibility:visible;display:inline;overflow:visible;enable-background:accumulate"
         sodipodi:type="arc"
         transform="matrix(0.10360769,0,0,0.10360769,12.052631,405.41896)" />
      <path
         transform="matrix(0.20721537,0,0,0.20721537,2.7706682,352.3343)"
         sodipodi:type="arc"
         style="color:#000000;fill:#000000;fill-opacity:1;fill-rule:nonzero;stroke:#000000;stroke-width:1.99999988;stroke-linecap:round;stroke-linejoin:miter;stroke-miterlimit:4;stroke-opacity:1;stroke-dasharray:none;stroke-dashoffset:0;marker:none;visibility:visible;display:inline;overflow:visible;enable-background:accumulate"
         id="path3761"
         sodipodi:cx="85"
         sodipodi:cy="532.36218"
         sodipodi:rx="10"
         sodipodi:ry="10"
         d="m 95,532.36218 c 0,5.52285 -4.477153,10 -10,10 -5.522847,0 -10,-4.47715 -10,-10 0,-5.52284 4.477153,-10 10,-10 5.522847,0 10,4.47716 10,10 z" />
      <path
         d="m 95,532.36218 c 0,5.52285 -4.477153,10 -10,10 -5.522847,0 -10,-4.47715 -10,-10 0,-5.52284 4.477153,-10 10,-10 5.522847,0 10,4.47716 10,10 z"
         sodipodi:ry="10"
         sodipodi:rx="10"
         sodipodi:cy="532.36218"
         sodipodi:cx="85"
         id="path3765"
         style="color:#000000;fill:#000000;fill-opacity:1;fill-rule:nonzero;stroke:#000000;stroke-width:1.99999988;stroke-linecap:round;stroke-linejoin:miter;stroke-miterlimit:4;stroke-opacity:1;stroke-dasharray:none;stroke-dashoffset:0;marker:none;visibility:visible;display:inline;overflow:visible;enable-background:accumulate"
         sodipodi:type="arc"
         transform="matrix(0.20721537,0,0,0.20721537,8.1582678,352.3343)" />
      <path
         sodipodi:nodetypes="ccccc"
         inkscape:connector-curvature="0"
         d="m 24.321067,470.36218 -0.590396,-7.56366 3.803911,-1.03009 2.830334,6.00231 z"
         style="fill:#000000;stroke:#000000;stroke-width:0.55406272;stroke-linecap:butt;stroke-linejoin:round;stroke-miterlimit:4;stroke-opacity:1;stroke-dasharray:none"
         id="path3779" />
      <path
         transform="matrix(0.31082306,0,0,0.31082306,-7.4864926,303.28571)"
         d="m 95,532.36218 c 0,5.52285 -4.477153,10 -10,10 -5.522847,0 -10,-4.47715 -10,-10 0,-5.52284 4.477153,-10 10,-10 5.522847,0 10,4.47716 10,10 z"
         sodipodi:ry="10"
         sodipodi:rx="10"
         sodipodi:cy="532.36218"
         sodipodi:cx="85"
         id="path2987"
         style="color:#000000;fill:#220055;fill-opacity:1;fill-rule:nonzero;stroke:#000000;stroke-width:3.21726441;stroke-linecap:round;stroke-linejoin:miter;stroke-miterlimit:4;stroke-opacity:1;stroke-dasharray:none;stroke-dashoffset:0;marker:none;visibility:visible;display:inline;overflow:visible;enable-background:accumulate"
         sodipodi:type="arc" />
      <path
         sodipodi:type="arc"
         style="color:#000000;fill:#220055;fill-opacity:1;fill-rule:nonzero;stroke:#000000;stroke-width:3.21726441;stroke-linecap:round;stroke-linejoin:miter;stroke-miterlimit:4;stroke-opacity:1;stroke-dasharray:none;stroke-dashoffset:0;marker:none;visibility:visible;display:inline;overflow:visible;enable-background:accumulate"
         id="path3763"
         sodipodi:cx="85"
         sodipodi:cy="532.36218"
         sodipodi:rx="10"
         sodipodi:ry="10"
         d="m 95,532.36218 c 0,5.52285 -4.477153,10 -10,10 -5.522847,0 -10,-4.47715 -10,-10 0,-5.52284 4.477153,-10 10,-10 5.522847,0 10,4.47716 10,10 z"
         transform="matrix(0.31082306,0,0,0.31082306,0.80212217,303.28571)" />
      <path
         sodipodi:open="true"
         sodipodi:end="4.5588"
         sodipodi:start="3.3371857"
         transform="matrix(0.21323409,0,0,0.22846487,-0.45518168,345.63164)"
         d="m 83.143006,537.00174 c 0.612715,-2.88638 3.094044,-5.107 6.2096,-5.55716"
         sodipodi:ry="7"
         sodipodi:rx="7.5"
         sodipodi:cy="538.36218"
         sodipodi:cx="90.5"
         id="path3788"
         style="color:#000000;fill:none;stroke:#ffffff;stroke-width:4.5306654;stroke-linecap:round;stroke-linejoin:round;stroke-miterlimit:4;stroke-opacity:1;stroke-dasharray:none;stroke-dashoffset:0;marker:none;visibility:visible;display:inline;overflow:visible;enable-background:accumulate"
         sodipodi:type="arc" />
      <path
         sodipodi:type="arc"
         style="color:#000000;fill:none;stroke:#ffffff;stroke-width:4.84826994;stroke-linecap:round;stroke-linejoin:round;stroke-miterlimit:4;stroke-opacity:1;stroke-dasharray:none;stroke-dashoffset:0;marker:none;visibility:visible;display:inline;overflow:visible;enable-background:accumulate"
         id="path3790"
         sodipodi:cx="90.5"
         sodipodi:cy="538.36218"
         sodipodi:rx="7.5"
         sodipodi:ry="7"
         d="m 83.143006,537.00174 c 0.612715,-2.88638 3.094044,-5.107 6.2096,-5.55716"
         transform="matrix(0.19926537,0,0,0.2134984,9.1057901,353.69288)"
         sodipodi:start="3.3371857"
         sodipodi:end="4.5588"
         sodipodi:open="true" />
      <path
         transform="matrix(0.20721537,0,0,0.20721537,0.26198665,356.61095)"
         d="m 113,530.36218 c 0,1.65686 -1.34315,3 -3,3 -1.65685,0 -3,-1.34314 -3,-3 0,-1.65685 1.34315,-3 3,-3 1.65685,0 3,1.34315 3,3 z"
         sodipodi:ry="3"
         sodipodi:rx="3"
         sodipodi:cy="530.36218"
         sodipodi:cx="110"
         id="path3792"
         style="color:#000000;fill:#808080;fill-opacity:1;fill-rule:nonzero;stroke:#000000;stroke-width:2;stroke-linecap:round;stroke-linejoin:round;stroke-miterlimit:4;stroke-opacity:1;stroke-dasharray:none;stroke-dashoffset:0;marker:none;visibility:visible;display:inline;overflow:visible;enable-background:accumulate"
         sodipodi:type="arc" />
    </g>
  </g>
</svg>
